<svg xmlns="http://www.w3.org/2000/svg" xmlns:xlink="http://www.w3.org/1999/xlink" viewBox="0 0 34.71 34.71">
  <defs>
    <style>
      .cls-1 {
        fill: none;
      }

      .cls-2 {
        clip-path: url(#clip-path);
      }

      .cls-3 {
        fill: #fff;
      }
    </style>
    <clipPath id="clip-path" transform="translate(0.5 0.5)">
      <rect class="cls-1" width="35" height="35"/>
    </clipPath>
  </defs>
  <g id="Livello_2" data-name="Livello 2">
    <g id="Livello_1-2" data-name="Livello 1">
      <g id="Raggruppa_27" data-name="Raggruppa 27">
        <g class="cls-2">
          <g id="Raggruppa_26" data-name="Raggruppa 26">
            <path id="Tracciato_19" data-name="Tracciato 19" class="cls-3" d="M19.9,16.85a3,3,0,1,1-3-3.05h0a3,3,0,0,1,3,3.05" transform="translate(0.5 0.5)"/>
            <path id="Tracciato_20" data-name="Tracciato 20" class="cls-3" d="M22,7.63H11.7A4.07,4.07,0,0,0,7.63,11.7V22a4.07,4.07,0,0,0,4.07,4.07H22A4.07,4.07,0,0,0,26.07,22V11.7A4.07,4.07,0,0,0,22,7.63M16.85,21.94a5.09,5.09,0,1,1,5.09-5.09,5.08,5.08,0,0,1-5.09,5.09M22.68,12a1,1,0,1,1,1-1h0a1,1,0,0,1-1,1" transform="translate(0.5 0.5)"/>
            <path id="Tracciato_21" data-name="Tracciato 21" class="cls-3" d="M25.06-.5H8.65A9.15,9.15,0,0,0-.5,8.65V25.06a9.16,9.16,0,0,0,9.15,9.15H25.06a9.17,9.17,0,0,0,9.15-9.15V8.65A9.16,9.16,0,0,0,25.06-.5M28.11,22a6.12,6.12,0,0,1-6.1,6.1H11.7A6.11,6.11,0,0,1,5.6,22V11.7a6.1,6.1,0,0,1,6.1-6.1H22a6.11,6.11,0,0,1,6.1,6.1Z" transform="translate(0.5 0.5)"/>
          </g>
        </g>
      </g>
    </g>
  </g>
</svg>
