<svg xmlns="http://www.w3.org/2000/svg" xmlns:xlink="http://www.w3.org/1999/xlink" viewBox="0 0 35.63 35.63">
  <defs>
    <style>
      .cls-1 {
        fill: none;
      }

      .cls-2 {
        fill: #fff;
      }

      .cls-3 {
        clip-path: url(#clip-path);
      }
    </style>
    <clipPath id="clip-path" transform="translate(0.32 0.32)">
      <rect class="cls-1" width="35" height="35"/>
    </clipPath>
  </defs>
  <g id="Livello_2" data-name="Livello 2">
    <g id="Livello_1-2" data-name="Livello 1">
      <g id="Raggruppa_30" data-name="Raggruppa 30">
        <path id="Tracciato_22" data-name="Tracciato 22" class="cls-2" d="M15.28,20.84l5.8-3.34-5.8-3.34Z" transform="translate(0.32 0.32)"/>
        <g id="Raggruppa_29" data-name="Raggruppa 29">
          <g class="cls-3">
            <g id="Raggruppa_28" data-name="Raggruppa 28">
              <path id="Tracciato_23" data-name="Tracciato 23" class="cls-2" d="M17.5-.32A17.82,17.82,0,1,0,35.32,17.5,17.82,17.82,0,0,0,17.5-.32M28.63,17.52a29.07,29.07,0,0,1-.46,5.35,2.77,2.77,0,0,1-2,2c-1.74.46-8.71.46-8.71.46s-6.95,0-8.71-.48a2.8,2.8,0,0,1-2-2,29.17,29.17,0,0,1-.45-5.36,30,30,0,0,1,.45-5.35,2.88,2.88,0,0,1,2-2c1.75-.46,8.72-.46,8.72-.46s7,0,8.71.48a2.8,2.8,0,0,1,2,2,27.63,27.63,0,0,1,.46,5.37" transform="translate(0.32 0.32)"/>
            </g>
          </g>
        </g>
      </g>
    </g>
  </g>
</svg>
