<svg xmlns="http://www.w3.org/2000/svg" viewBox="0 0 986.64 373.37">
  <defs>
    <style>
      .cls-1 {
        fill: #fff;
      }
    </style>
  </defs>
  <g id="Livello_2" data-name="Livello 2">
    <g id="Livello_1-2" data-name="Livello 1">
      <g>
        <g>
          <path class="cls-1" d="M77.12,0a17.79,17.79,0,0,1,.48,2.86q0,75.44.07,150.86c0,2-.51,3.05-2.43,3.89-15.95,7-20.94,28.16-9.73,41.85,10,12.2,28.48,14.18,40.43,2.3a27.12,27.12,0,0,0-7.46-44c-2.13-1-2.71-2.1-2.71-4.33q.09-75.12.06-150.25A20.6,20.6,0,0,1,96.31,0Q109.9,31.59,123.5,63.17q24.24,56.49,48.47,113a15.12,15.12,0,0,1,.54,11.48q-14.76,43.86-29.31,87.78c-.29.86-.59,1.72-.79,2.29H31.11c-.13-.35-.47-1.17-.75-2Q15.62,231.51.84,187.33a14.15,14.15,0,0,1,.41-10.62Q38.93,88.92,76.54,1.07C76.7.7,76.92.36,77.12,0Z"/>
          <path class="cls-1" d="M24.52,370.71c-.67-2.26-1.89-4.52-1.9-6.79q-.24-29-.07-58c0-5.9,3.85-9.43,10-9.48,10.59-.07,21.17,0,31.76,0h75.11c8.21,0,11.5,3.27,11.5,11.43q0,27.18,0,54.35c0,7.83-3.32,11.16-11.13,11.16H33.55C30.41,373.37,27.44,373,24.52,370.71Z"/>
          <path class="cls-1" d="M80.3,175.85a8.93,8.93,0,0,1,12.8,0,9.06,9.06,0,0,1,.09,13.07,9.23,9.23,0,0,1-13.11-.17A9.05,9.05,0,0,1,80.3,175.85Z"/>
        </g>
        <g>
          <path class="cls-1" d="M394.75,94.68c0,43.5-24.83,70.95-64,70.95-39.77,0-66.29-28.38-66.29-70.95s26.52-70.95,66.29-70.95c17.73,0,31.37,3.55,45.18,13.82l-6.35,6.34c-11-8.58-23.52-12.13-38.65-12.13-33.79,0-56.38,25.2-56.38,62.92s22.59,62.92,56.38,62.92c32.12,0,52.66-22.78,53.78-57.32H337.62V92.07h57.13Z"/>
          <path class="cls-1" d="M488.48,102v61.8h-8.77l-.19-21.65v-2.06c-6.72,16.06-22,25.58-39,25.58-18.86,0-31.56-11-31.56-27.82,0-17.55,15.69-29.31,39.4-29.31a124.92,124.92,0,0,1,31.18,3.92v-8.78c0-19.6-12.32-32.3-31.37-32.3-12.51,0-21.47,4.3-28.57,12.14l-4.29-5.79c8.22-8.78,19.42-13.82,34.54-13.82C473.36,63.87,488.48,79.18,488.48,102Zm-9,17.18a117.73,117.73,0,0,0-30.06-3.92c-18.67,0-31,9-31,22.4,0,12.7,9.53,21.1,24.46,21.1C459.92,158.72,479.52,144.53,479.52,119.14Z"/>
          <path class="cls-1" d="M617.13,115c0,30.25-19.23,50.6-47,50.6-21.66,0-35.29-10.64-41.64-26.32v1.3l-.19,23.15h-8.77V18.13h9V90.39c6.35-15.87,20-26.52,41.64-26.52C597.9,63.87,617.13,84.41,617.13,115Zm-9.34,0c0-25.95-15.87-43.32-39.77-43.32-23.71,0-39.58,17.37-39.58,43.14s15.87,42.94,39.58,42.94C591.92,157.79,607.79,140.8,607.79,115Z"/>
          <path class="cls-1" d="M691.63,63.87l-.75,8.22c-25.2,0-39.21,12.88-39.21,33.23v58.44h-9v-98h8.78l.18,18.86C658,70.41,671.65,63.87,691.63,63.87Z"/>
          <path class="cls-1" d="M707.13,30.82a6.82,6.82,0,0,1,13.63,0,6.82,6.82,0,1,1-13.63,0Zm2.42,34.92h9v98h-9Z"/>
          <path class="cls-1" d="M835.21,118.21H754.37c1.12,24.08,14.56,40.14,35.85,40.14,14.37,0,26.51-7.47,34.91-18.67l6.72,4.29a49.16,49.16,0,0,1-41.45,21.66c-27.44,0-45.74-20.54-45.74-51.16,0-30.43,18.11-50.6,45.37-50.6,27.07,0,45.18,20,45.18,49.67Zm-81-6.73h71.7C824.94,87,811.13,71.34,790,71.34,768.74,71.34,755.11,87,754.18,111.48Z"/>
          <path class="cls-1" d="M860.61,18.13h9V163.76h-9Z"/>
          <path class="cls-1" d="M986.64,118.21H905.79c1.12,24.08,14.57,40.14,35.85,40.14,14.38,0,26.52-7.47,34.92-18.67l6.72,4.29a49.18,49.18,0,0,1-41.45,21.66c-27.45,0-45.75-20.54-45.75-51.16,0-30.43,18.12-50.6,45.38-50.6,27.07,0,45.18,20,45.18,49.67Zm-81-6.73h71.7c-.94-24.45-14.75-40.14-35.85-40.14C920.17,71.34,906.54,87,905.61,111.48Z"/>
        </g>
        <g>
          <path class="cls-1" d="M264.42,285.57c0-42.38,27.45-70.76,68.53-70.76,22.59,0,38.65,9,51.16,22.59l-6,6.16c-10.45-11.76-25-20.72-44.62-20.72-35.48,0-59,25-59,62.55,0,37.9,23.34,63.29,58.25,63.29a58.66,58.66,0,0,0,48.55-24.83l6.53,6.16c-11.95,16.06-31.18,26.7-55.08,26.7C291.87,356.71,264.42,328.33,264.42,285.57Z"/>
          <path class="cls-1" d="M481.76,293v61.8H473l-.19-21.65v-2.06c-6.72,16.06-22,25.58-39,25.58-18.86,0-31.56-11-31.56-27.82,0-17.55,15.69-29.31,39.4-29.31a124.92,124.92,0,0,1,31.18,3.92v-8.78c0-19.6-12.32-32.3-31.37-32.3-12.51,0-21.47,4.3-28.56,12.14l-4.3-5.79C416.79,260,428,255,443.11,255,466.64,255,481.76,270.26,481.76,293Zm-9,17.18a117.73,117.73,0,0,0-30.06-3.92c-18.67,0-31,9-31,22.4,0,12.7,9.53,21.1,24.46,21.1C453.2,349.8,472.8,335.61,472.8,310.22Z"/>
          <path class="cls-1" d="M564.11,345.32v7.47c-6.17,2.8-14,3.92-23.16,3.92-15.12,0-25.2-10.27-25.2-25.58V264.47H498.2v-7.65h17.55V228.07h9v28.75h37.9v7.65h-37.9v65c0,11.58,7.65,19.42,18.86,19.42A59.44,59.44,0,0,0,564.11,345.32Z"/>
          <path class="cls-1" d="M664.94,309.29H584.09c1.12,24.08,14.56,40.14,35.85,40.14,14.37,0,26.51-7.47,34.91-18.67l6.72,4.29a49.16,49.16,0,0,1-41.45,21.66c-27.44,0-45.74-20.54-45.74-51.16,0-30.43,18.11-50.6,45.37-50.6,27.07,0,45.19,20,45.19,49.67Zm-81-6.73h71.7c-.93-24.45-14.75-40.14-35.85-40.14C598.46,262.42,584.83,278.11,583.9,302.56Z"/>
          <path class="cls-1" d="M690.33,209.21h9V354.84h-9Z"/>
          <path class="cls-1" d="M732.9,209.21h9V354.84h-9Z"/>
          <path class="cls-1" d="M772.67,221.9a6.82,6.82,0,0,1,13.63,0,6.82,6.82,0,1,1-13.63,0Zm2.43,34.92h9v98h-9Z"/>
        </g>
      </g>
    </g>
  </g>
</svg>
